<?xml version="1.0" encoding="UTF-8" standalone="no"?>
<!-- Created with Inkscape (http://www.inkscape.org/) -->

<svg
   xmlns:dc="http://purl.org/dc/elements/1.1/"
   xmlns:cc="http://creativecommons.org/ns#"
   xmlns:rdf="http://www.w3.org/1999/02/22-rdf-syntax-ns#"
   xmlns:svg="http://www.w3.org/2000/svg"
   xmlns="http://www.w3.org/2000/svg"
   xmlns:sodipodi="http://sodipodi.sourceforge.net/DTD/sodipodi-0.dtd"
   xmlns:inkscape="http://www.inkscape.org/namespaces/inkscape"
   width="721.2489"
   height="784.29681"
   id="svg3122"
   version="1.1"
   inkscape:version="0.91 r13725"
   sodipodi:docname="222-1001-2 wedding flat design.svg"
   inkscape:export-filename="D:\0. Vexagrafi\paid vector\222-1001-2 wedding flat design.png"
   inkscape:export-xdpi="144.46902"
   inkscape:export-ydpi="144.46902">
  <defs
     id="defs3124" />
  <sodipodi:namedview
     id="base"
     pagecolor="#ffffff"
     bordercolor="#666666"
     borderopacity="1.0"
     inkscape:pageopacity="0.0"
     inkscape:pageshadow="2"
     inkscape:zoom="0.49497475"
     inkscape:cx="348.28451"
     inkscape:cy="355.00583"
     inkscape:document-units="px"
     inkscape:current-layer="g4183"
     showgrid="false"
     fit-margin-top="0"
     fit-margin-left="0"
     fit-margin-right="0"
     fit-margin-bottom="0"
     inkscape:window-width="1366"
     inkscape:window-height="706"
     inkscape:window-x="-8"
     inkscape:window-y="-8"
     inkscape:window-maximized="1" />
  <metadata
     id="metadata3127">
    <rdf:RDF>
      <cc:Work
         rdf:about="">
        <dc:format>image/svg+xml</dc:format>
        <dc:type
           rdf:resource="http://purl.org/dc/dcmitype/StillImage" />
        <dc:title />
      </cc:Work>
    </rdf:RDF>
  </metadata>
  <g
     inkscape:label="Layer 1"
     inkscape:groupmode="layer"
     id="layer1"
     transform="translate(-7.9469786,-100.21379)">
    <g
       id="g4183">
      <rect
         ry="1.1364217"
         y="100.21379"
         x="7.9469786"
         height="783.87836"
         width="721.2489"
         id="rect3095-2"
         style="fill:#ff8080;fill-opacity:1;fill-rule:evenodd;stroke:none" />
      <path
         sodipodi:nodetypes="ccccc"
         inkscape:connector-curvature="0"
         id="path4307"
         d="m 728.76275,882.96977 c -8.0812,-6.37462 -2.0203,-127.49254 -2.0203,-127.49254 L 76.204157,757.07088 8.5239367,883.7666 z"
         style="fill:#ff5555;stroke:none" />
      <path
         style="fill:#ff5555;fill-opacity:1;fill-rule:evenodd;stroke:none"
         d="m 376.21495,170.72264 c -42.5393,0 -77.3876,36.72252 -80.5625,83.35717 l -2.2812,0 c -2.2321,0 -4.0313,2.06248 -4.0313,4.62101 l 0,444.69101 c 0,2.55853 1.7992,4.621 4.0313,4.621 l 167.7186,0 c 2.232,0 4.0313,-2.06247 4.0313,-4.621 l 0,-444.69101 c 0,-2.55853 -1.7993,-4.62101 -4.0313,-4.62101 l -4.2813,0 c -3.1748,-46.63465 -38.0543,-83.35717 -80.5936,-83.35717 z"
         id="path4303"
         inkscape:connector-curvature="0" />
      <path
         inkscape:connector-curvature="0"
         id="rect4297"
         d="m 166.10314,170.72264 c -42.5393,0 -77.387603,36.72252 -80.562503,83.35717 l -2.2812,0 c -2.2321,0 -4.0313,2.06248 -4.0313,4.62101 l 0,444.69101 c 0,2.55853 1.7992,4.621 4.0313,4.621 l 167.718713,0 c 2.232,0 4.0313,-2.06247 4.0313,-4.621 l 0,-444.69101 c 0,-2.55853 -1.7993,-4.62101 -4.0313,-4.62101 l -4.2813,0 c -3.1748,-46.63465 -38.0544,-83.35717 -80.59371,-83.35717 z"
         style="fill:#ff5555;fill-opacity:1;fill-rule:evenodd;stroke:none" />
      <path
         sodipodi:nodetypes="ccccc"
         inkscape:connector-curvature="0"
         id="path3024-7"
         d="m 357.50635,334.32901 c -10.6622,40.67043 -47.9253,88.54898 -24.9356,145.77557 42.2087,-13.8641 59.0123,-36.58653 82.3056,-33.36222 l 5.0193,-116.69907 c -11.7734,-8.34505 -47.2845,-3.36006 -62.3893,4.28572 z"
         style="fill:#333333;stroke:none" />
      <path
         style="fill:#333333;stroke:none"
         d="m 358.22065,360.75759 c 1.3002,43.10089 3.3242,45.57335 21.8476,99.28211 18.5884,-11.21129 48.6971,-3.43403 65.1653,-1.15448 l -4.2665,-106.69906 c -11.7733,-8.34506 -67.6416,0.92565 -82.7464,8.57143 z"
         id="path3028-9"
         inkscape:connector-curvature="0"
         sodipodi:nodetypes="ccccc" />
      <path
         inkscape:connector-curvature="0"
         id="path4305"
         d="m 582.28605,167.37529 c -42.5393,0 -77.3876,36.9513 -80.5625,83.87649 l -2.2812,0 c -2.2321,0 -4.0313,2.07533 -4.0313,4.6498 l 0,447.46145 c 0,2.57448 1.7992,4.6498 4.0313,4.6498 l 167.7186,0 c 2.232,0 4.0313,-2.07532 4.0313,-4.6498 l 0,-447.46145 c 0,-2.57447 -1.7993,-4.6498 -4.0313,-4.6498 l -4.2813,0 c -3.1748,-46.92519 -38.0543,-83.87649 -80.5936,-83.87649 z"
         style="fill:#ff5555;fill-opacity:1;fill-rule:evenodd;stroke:none" />
      <path
         sodipodi:nodetypes="cccc"
         inkscape:connector-curvature="0"
         id="path3018-5"
         d="m 358.63985,355.53608 83.9852,0 c -2.1356,34.03006 1.2538,75.4215 -42.9174,86.39476 -35.6375,-11.26305 -41.9851,-51.10473 -41.0678,-86.39476 z"
         style="fill:#ffeeaa;stroke:none" />
      <path
         sodipodi:nodetypes="ccccc"
         inkscape:connector-curvature="0"
         id="path3022-4"
         d="m 355.94785,340.67092 c -2.6628,21.32094 9.1235,27.46805 15,37.14287 -0.7525,-6.26697 -0.8427,-10.1991 -5.3033,-14.28572 12.2054,11.33177 50.109,18.42492 84.5172,21.01015 1.4908,-47.45679 -40.6034,-56.26201 -94.2139,-43.8673 z"
         style="fill:#333333;stroke:none" />
      <path
         sodipodi:nodetypes="cccc"
         inkscape:connector-curvature="0"
         id="path3053-3"
         d="m 392.11805,423.1008 17.9902,-0.52091 c -0.8809,3.1199 -2.7409,6.92112 -8.5231,6.9324 -5.4621,0.14391 -7.5137,-2.4401 -9.4671,-6.41149 z"
         style="fill:#ff5555;stroke:none" />
      <path
         sodipodi:nodetypes="ccccccccscccccccccccc"
         inkscape:connector-curvature="0"
         id="path3075-7-1"
         d="m 408.48155,431.2119 5.3138,21.66317 c 12.1155,4.04762 33.7453,7.38094 35,11.42856 l 6.4286,95.71429 -53.5714,3.21428 -12.5,10 -12.8572,-17.14285 23.9286,0 c 0,0 45.7143,-1.42857 45.7143,-2.85715 0,-1.42857 -10.5918,-59.93436 -10.5918,-59.93436 l -2.4238,11.53625 -66.9844,-16.60188 -18.9286,59.99999 -50.3571,28.57143 -13.2143,-10.71428 17.1428,-1.07143 40,-23.92857 16.7857,-82.5 c 1.5127,-6.6363 24.881,-3.80952 37.3215,-5.71429 l 2.5,-17.67857 z"
         style="fill:#ffeeaa;stroke:none" />
      <path
         sodipodi:nodetypes="ccccc"
         inkscape:connector-curvature="0"
         id="path3026-2"
         d="m 408.48375,327.51792 c 37.9123,48.33299 34.0073,109.90678 27.1069,154.58158 7.0151,-2.1045 29.7116,-26.62776 25.3572,-39.64285 1.1118,-35.99215 -9.3784,-118.09522 -31.7857,-108.92859 -3.1905,-3.84547 -18.8236,-7.87273 -20.6784,-6.01014 z"
         style="fill:#333333;stroke:none" />
      <path
         sodipodi:nodetypes="ccccccccccc"
         inkscape:connector-curvature="0"
         id="path3055-1-3"
         d="m 380.69335,488.61746 c -4.4768,-2.97689 -2.8929,-6.45162 -13.3665,-8.22915 -8.4885,3.45953 -11.6516,9.32857 -13.4279,16.81545 -0.062,5.26916 1.6049,10.65434 2.044,15.52226 7.1622,16.17796 8.9354,30.42525 8.1801,46.75006 -94.6462,108.34483 -109.824,216.68967 -130.7027,325.0345 l 377.0828,-0.4184 c -40.3483,-77.67065 -56.9525,-186.43175 -182.8377,-322.74373 -9.4067,-20.45826 0.3595,-37.55596 4.9716,-54.96666 -9.8503,-9.86861 -10.1279,-24.80524 -27.1949,-26.8557 -11.9717,1.43334 -16.0578,5.0335 -24.7488,9.09137 z"
         style="fill:#ffffff;stroke:none" />
      <path
         sodipodi:nodetypes="ccccc"
         inkscape:connector-curvature="0"
         id="path3213-7"
         d="m 370.46565,388.61236 c 7.2452,-3.9611 15.3691,-1.69304 20.4555,0.37881 l 0,2.77792 c -6.5496,-1.84827 -13.2379,-2.65637 -20.4555,0.50507 z"
         style="fill:#333333;stroke:none" />
      <path
         d="m 387.51977,305.41751 a 3.9774756,3.9774756 0 0 1 -3.97747,3.97748 3.9774756,3.9774756 0 0 1 -3.97748,-3.97748 3.9774756,3.9774756 0 0 1 3.97748,-3.97747 3.9774756,3.9774756 0 0 1 3.97747,3.97747 z"
         sodipodi:ry="3.9774756"
         sodipodi:rx="3.9774756"
         sodipodi:cy="305.41751"
         sodipodi:cx="383.5423"
         id="path3215-7"
         style="fill:#333333;fill-opacity:1;fill-rule:evenodd;stroke:none"
         sodipodi:type="arc"
         transform="translate(-6.1951233,88.308737)" />
      <path
         style="fill:#333333;stroke:none"
         d="m 402.53795,388.61236 c 7.2453,-3.9611 15.3692,-1.69304 20.4556,0.37881 l 0,2.77792 c -6.5497,-1.84827 -13.238,-2.65637 -20.4556,0.50507 z"
         id="path3217-9"
         inkscape:connector-curvature="0"
         sodipodi:nodetypes="ccccc" />
      <path
         transform="translate(25.877277,88.308737)"
         sodipodi:type="arc"
         style="fill:#333333;fill-opacity:1;fill-rule:evenodd;stroke:none"
         id="path3219-3"
         sodipodi:cx="383.5423"
         sodipodi:cy="305.41751"
         sodipodi:rx="3.9774756"
         sodipodi:ry="3.9774756"
         d="m 387.51977,305.41751 a 3.9774756,3.9774756 0 0 1 -3.97747,3.97748 3.9774756,3.9774756 0 0 1 -3.97748,-3.97748 3.9774756,3.9774756 0 0 1 3.97748,-3.97747 3.9774756,3.9774756 0 0 1 3.97747,3.97747 z" />
      <path
         sodipodi:nodetypes="cccccccccccc"
         inkscape:connector-curvature="0"
         id="path4382-7"
         d="m 101.47622,277.55682 c -6.965713,18.3361 -10.025373,48.30502 17.67767,84.34775 l -1.51523,-20.70814 c 1.55289,10.9869 5.27309,21.25134 11.11168,30.80966 l -0.50508,-20.20305 7.07107,22.22336 3.03046,-9.09138 12.62691,9.59645 1.51522,-9.09137 9.59645,7.07107 c 27.60696,-25.6935 19.95605,-49.47199 34.49312,-73.85319 -20.20499,-49.30738 -74.91802,-37.47754 -95.10227,-21.10116 z"
         style="fill:#333333;stroke:none" />
      <path
         style="fill:#ffe680;stroke:none"
         d="m 182.20766,291.5926 -75.05668,-6.42857 c 2.13562,34.03006 -1.25373,75.42151 42.91748,86.39477 29.75756,-9.40473 39.0931,-38.73559 40.82957,-68.70411 0.34312,-5.92159 -8.53903,-5.43951 -8.69037,-11.26209 z"
         id="path4219-4"
         inkscape:connector-curvature="0"
         sodipodi:nodetypes="ccccc" />
      <path
         sodipodi:nodetypes="ccccc"
         inkscape:connector-curvature="0"
         id="path4221-0"
         d="m 103.36674,282.70914 c -2.60597,21.32093 6.65585,17.11398 12.40681,26.7888 -0.73646,-6.26697 -0.82472,-10.1991 -5.19004,-14.28572 11.94478,11.33177 49.03888,18.42492 82.71224,21.01015 1.45899,-47.45678 -37.4634,-45.90794 -89.92901,-33.51323 z"
         style="fill:#000000;fill-opacity:0.28645833;stroke:none" />
      <path
         style="fill:#333333;stroke:none"
         d="m 101.22058,280.40041 c -2.662833,21.32093 9.12354,17.36651 15,27.04133 -0.75253,-6.26697 -0.59018,-13.73463 -5.05076,-17.82125 -2.78097,12.42694 6.35258,21.40791 84.26468,24.54568 1.49083,-47.45678 -40.60338,-46.16047 -94.21392,-33.76576 z"
         id="path4223-9"
         inkscape:connector-curvature="0"
         sodipodi:nodetypes="ccccc" />
      <path
         style="fill:#ff5555;stroke:none"
         d="m 157.658,352.72876 c -6.79391,2.61651 -12.53237,1.53896 -17.99017,-0.52091 0.88093,3.1199 2.74091,6.92112 8.52308,6.9324 5.46211,0.14391 7.51372,-2.4401 9.46709,-6.41149 z"
         id="path4225-4"
         inkscape:connector-curvature="0"
         sodipodi:nodetypes="cccc" />
      <path
         style="fill:#333333;stroke:none"
         d="m 179.31047,318.24031 c -7.24527,-3.9611 -15.36918,-1.69304 -20.45559,0.37881 l 0,2.77792 c 6.54965,-1.84827 13.23798,-2.65637 20.45559,0.50507 z"
         id="path4227-8"
         inkscape:connector-curvature="0"
         sodipodi:nodetypes="ccccc" />
      <path
         transform="matrix(-1,0,0,1,555.97115,17.936707)"
         sodipodi:type="arc"
         style="fill:#333333;fill-opacity:1;fill-rule:evenodd;stroke:none"
         id="path4229-8"
         sodipodi:cx="383.5423"
         sodipodi:cy="305.41751"
         sodipodi:rx="3.9774756"
         sodipodi:ry="3.9774756"
         d="m 387.51977,305.41751 a 3.9774756,3.9774756 0 0 1 -3.97747,3.97748 3.9774756,3.9774756 0 0 1 -3.97748,-3.97748 3.9774756,3.9774756 0 0 1 3.97748,-3.97747 3.9774756,3.9774756 0 0 1 3.97747,3.97747 z" />
      <path
         sodipodi:nodetypes="ccccc"
         inkscape:connector-curvature="0"
         id="path4231-2"
         d="m 147.23813,318.24031 c -7.24527,-3.9611 -15.36918,-1.69304 -20.45559,0.37881 l 0,2.77792 c 6.54965,-1.84827 13.23798,-2.65637 20.45559,0.50507 z"
         style="fill:#333333;stroke:none" />
      <path
         d="m 387.51977,305.41751 a 3.9774756,3.9774756 0 0 1 -3.97747,3.97748 3.9774756,3.9774756 0 0 1 -3.97748,-3.97748 3.9774756,3.9774756 0 0 1 3.97748,-3.97747 3.9774756,3.9774756 0 0 1 3.97747,3.97747 z"
         sodipodi:ry="3.9774756"
         sodipodi:rx="3.9774756"
         sodipodi:cy="305.41751"
         sodipodi:cx="383.5423"
         id="path4233-4"
         style="fill:#333333;fill-opacity:1;fill-rule:evenodd;stroke:none"
         sodipodi:type="arc"
         transform="matrix(-1,0,0,1,523.89885,17.936707)" />
      <path
         style="fill:#333333;stroke:none"
         d="m 103.11144,284.4002 5.68211,11.86929 c 4.64164,15.92824 -4.59982,27.12199 -3.24864,35.29606 0,0 -5.969003,-26.45722 -5.969003,-27.08857 0,-0.63134 3.535533,-20.07678 3.535533,-20.07678 z"
         id="path4235-5"
         inkscape:connector-curvature="0"
         sodipodi:nodetypes="cccsc" />
      <path
         sodipodi:nodetypes="ccccccscccccccccccc"
         inkscape:connector-curvature="0"
         id="path3075-7-5-5"
         d="m 137.7844,363.21731 -5.31382,21.66317 c -12.11547,4.04762 -45.888143,11.66665 -47.142863,15.71427 l 5.71429,91.42858 5.35715,87.5 c -3.11574,5.66494 9.168843,-1.51911 2.14285,-1.42857 0,0 1.785713,-91.42857 1.785713,-92.85715 0,-1.42857 -0.0149,-78.62218 -0.0149,-78.62218 l 5.75018,159.13598 81.12215,1.4758 1.72882,-155.57589 14.27088,93.22915 73.6178,62.55693 c 0,0 6.3539,-0.23868 3.1276,-5.66353 l -67.8168,-59.3934 -11.7857,-106.07142 c -1.51267,-6.6363 -36.30956,-9.52381 -48.75003,-11.42858 l -2.5,-17.67857 z"
         style="fill:#ffe680;stroke:none" />
      <path
         sodipodi:nodetypes="cccscccc"
         inkscape:connector-curvature="0"
         id="path4266-1"
         d="m 105.54294,564.67474 81.70505,2.43346 2.49475,282.19497 c 0,0 -21.03989,1.06091 -21.03989,-3.98985 0,-5.05076 -21.38652,-234.40615 -21.38652,-234.40615 l 0,237.38584 -23.23351,1.01016 z"
         style="fill:#1a1a1a;stroke:none" />
      <path
         sodipodi:nodetypes="cccc"
         inkscape:connector-curvature="0"
         id="path4298-7"
         d="m 301.82575,565.30873 -21.6228,10.79533 c 3.386,5.30843 13.5113,5.60508 28.4236,-4.76053 z"
         style="fill:#ffeeaa;stroke:none" />
      <path
         sodipodi:nodetypes="cccc"
         inkscape:connector-curvature="0"
         id="path4296-1"
         d="m 284.08435,563.06742 c 7.3746,5.55584 8.4438,11.11168 5.0508,16.66752 l -13.6371,-11.8693 z"
         style="fill:#ffe680;fill-opacity:1;stroke:none" />
      <path
         sodipodi:nodetypes="cccccc"
         inkscape:connector-curvature="0"
         id="path4337-8-1"
         d="m 92.799137,582.94081 8.677063,-1.41058 -0.55924,6.01393 c -3.231413,3.01256 -5.155563,2.74087 -8.383023,0.77578 -0.63269,-2.06917 -0.75997,-3.97169 -0.23988,-5.50542 z"
         style="fill:#ffe680;stroke:none" />
      <path
         style="fill:#1a1a1a;stroke:none"
         d="m 136.77425,398.32011 -4.30367,-13.43963 c -12.11547,4.04762 -45.888143,11.66665 -47.142863,15.71427 l 5.71429,91.42858 0,91.07142 c 2.60498,2.30065 14.089733,-1.37611 11.428573,-1.42856 0,0 -1.38525,-85.02474 -1.38525,-86.45332 0,-1.42857 -1.05347,-63.23595 -1.05347,-63.23595 l 6.03117,133.77449 81.12216,1.4758 2.42823,-137.70388 11.61243,78.39811 74.8013,61.32705 c 0,0 8.1396,0.24102 9.459,-6.69905 l -73.3727,-64.45468 -11.7857,-101.78571 c -1.51267,-6.6363 -36.30956,-9.52381 -48.75003,-11.42858 l -1.99492,13.63616 z"
         id="path4270-5"
         inkscape:connector-curvature="0"
         sodipodi:nodetypes="ccccccscccccccccccc" />
      <path
         sodipodi:nodetypes="cccc"
         inkscape:connector-curvature="0"
         id="path4274-2"
         d="m 152.87217,386.77957 c -7.0325,17.84841 -14.22283,18.8085 -21.59201,0.63134 -7.58269,23.9018 2.46035,62.86468 13.64231,85.86233 12.24065,-27.8606 15.91735,-67.17356 7.9497,-86.49367 z"
         style="fill:#ffffff;stroke:none" />
      <path
         style="fill:#e6e6e6;stroke:none"
         d="m 133.36343,386.50402 c 0.51687,10.04502 -0.27406,5.10859 8.53444,11.45813 8.23011,-5.37751 8.60164,-2.18413 9.32271,-11.10098 3.13024,8.32024 8.39183,8.77055 -2.06518,27.56653 l -7.13125,-11.40582 -6.5369,11.60606 c -5.22555,-10.38536 -8.77226,-13.56555 -2.12382,-28.12392 z"
         id="path4272-7"
         inkscape:connector-curvature="0"
         sodipodi:nodetypes="ccccccc" />
      <path
         sodipodi:nodetypes="cccccc"
         inkscape:connector-curvature="0"
         id="path4278-6"
         d="m 142.47058,399.5846 -2.58929,6.07143 -2.29079,49.68247 c 2.15941,6.45113 4.62688,12.47553 7.29079,17.91765 2.63548,-5.27552 4.63076,-12.18091 6.60714,-18.9394 z"
         style="fill:#ff8080;stroke:none" />
      <path
         sodipodi:nodetypes="ccccc"
         style="fill:#ff5555;stroke:none"
         d="m 148.80986,397.74532 -12.67857,0.71428 3.75,9.82143 3.57748,-0.31883 z"
         id="path4280-1"
         inkscape:connector-curvature="0" />
      <path
         sodipodi:nodetypes="ccccc"
         inkscape:connector-curvature="0"
         id="path4276-4"
         d="m 148.45272,396.37032 -12.32143,0.0893 4.19643,10.625 2.82731,-0.25713 z"
         style="fill:#ff8080;stroke:none" />
      <path
         sodipodi:nodetypes="ccccccc"
         inkscape:connector-curvature="0"
         id="path4268-2"
         d="m 133.36343,380.0846 c 0.51687,10.04502 -0.14779,9.27547 8.66071,15.62501 8.23011,-5.37751 8.47537,-6.35101 9.19644,-15.26786 3.13024,8.32024 8.26556,10.66459 -2.19145,29.46057 l -7.00498,-13.29986 -6.66317,13.12129 c -5.22555,-10.38536 -8.64599,-15.08078 -1.99755,-29.63915 z"
         style="fill:#ffffff;stroke:none" />
      <path
         inkscape:connector-curvature="0"
         id="path4286-3"
         d="m 125.40007,387.0846 -15.25255,30.58044 36.1445,82.26709 -1.50274,1.26607 -36.68828,-84.12653 15.85388,-29.59142 z"
         style="fill:#333333;stroke:none"
         sodipodi:nodetypes="ccccccc" />
      <path
         sodipodi:nodetypes="ccccccc"
         style="fill:#333333;stroke:none"
         d="m 160.85009,387.0846 15.25255,30.58044 -33.6445,77.44566 1.32417,1.0875 34.36685,-79.12653 -15.85388,-29.59142 z"
         id="path4290-2"
         inkscape:connector-curvature="0" />
      <path
         inkscape:connector-curvature="0"
         id="path4292-2"
         d="m 146.30618,500.04292 0.25254,66.165 -1.94529,-0.0162 0.17858,-66.25 z"
         style="fill:#333333;stroke:none" />
      <path
         sodipodi:nodetypes="ccccc"
         inkscape:connector-curvature="0"
         id="path4359-6"
         d="m 168.50629,609.22746 -2.14286,-39.64286 -27.85714,7.85715 15,52.85714 z"
         style="fill:#1a1a1a;stroke:none" />
      <path
         sodipodi:nodetypes="cccccc"
         inkscape:connector-curvature="0"
         id="path4363-5"
         d="m 119.97058,854.5846 2.14286,2.85714 17.5,-0.35714 9.64285,-1.78572 c -1.62475,-9.32067 -3.8003,-11.79669 -15,-12.85714 -7.61219,-0.51284 -11.39112,5.10755 -14.28571,12.14286 z"
         style="fill:#1a1a1a;stroke:none" />
      <path
         style="fill:#1a1a1a;stroke:none"
         d="m 163.32773,855.47747 2.14286,2.85714 17.5,-0.35714 9.64285,-1.78572 c -0.24479,-5.87078 -3.39135,-10.77431 -15,-12.85714 -7.61219,-0.51284 -11.39112,5.10755 -14.28571,12.14286 z"
         id="path4365-7"
         inkscape:connector-curvature="0"
         sodipodi:nodetypes="cccccc" />
      <path
         sodipodi:nodetypes="cccc"
         inkscape:connector-curvature="0"
         id="path4367-6"
         d="m 180.11345,857.7989 12.49999,-1.60715 c -0.24479,-5.87078 -3.39135,-10.77431 -15,-12.85714 1.44799,5.09631 0.61552,13.04193 2.50001,14.46429 z"
         style="fill:#000000;fill-opacity:0.51041667;stroke:none" />
      <path
         style="fill:#000000;fill-opacity:0.51041667;stroke:none"
         d="m 136.36345,857.19176 12.49999,-1.7262 c -0.24479,-6.30565 -3.39135,-11.57241 -15,-13.80952 1.44799,5.47381 0.61552,14.008 2.50001,15.53572 z"
         id="path4380-1"
         inkscape:connector-curvature="0"
         sodipodi:nodetypes="cccc" />
      <path
         sodipodi:nodetypes="cccscc"
         inkscape:connector-curvature="0"
         id="path4384-8"
         d="m 118.50629,289.58459 6.07143,66.78573 -10.35714,-29.64287 c -0.98418,-1.42042 -9.59935,2.68311 -9.64286,1.42857 -0.0495,-1.42771 1.07143,-30.71428 1.07143,-30.71428 z"
         style="fill:#333333;stroke:none" />
      <path
         inkscape:connector-curvature="0"
         id="path4309"
         d="m 728.26945,191.21602 c -14.7029,15.13984 -24.4257,36.30203 -26.0312,60.03125 l -2.2812,0 c -2.2321,0 -4.0313,2.08178 -4.0313,4.65625 l 0,447.46876 c 0,2.57448 1.7991,4.625 4.0313,4.625 l 28.3124,0 0,-516.78126 z"
         style="fill:#ff5555;fill-opacity:1;fill-rule:evenodd;stroke:none" />
      <path
         style="fill:#333333;stroke:none"
         d="m 358.90795,345.6168 5.6821,11.8693 c 4.6417,15.92824 -4.5998,27.12199 -3.2486,35.29606 0,0 -5.969,-26.45722 -5.969,-27.08857 0,-0.63134 3.5355,-20.07679 3.5355,-20.07679 z"
         id="path3121"
         inkscape:connector-curvature="0"
         sodipodi:nodetypes="cccsc" />
    </g>
  </g>
</svg>
